# xmcd
#
# Track frame offsets:
# 150
# 17800
# 35861
# 53778
# 74540
# 90987
# 108026
# 126534
# 143746
# 160910
#
# Disc length: 2423 seconds
#
#
# Revision: 4
# Processed by: cddbd v1.5.1PL0 Copyright (c) Steve Scherf et al.
# Submitted via: FreeRIP 2.942 
#
DISCID=8809750a
DTITLE=Mustafa Sandal - Isyankar
DYEAR=2004
DGENRE=Pop
TTITLE0=Isyankar
TTITLE1=Kavrulduk
TTITLE2=Gel Askim
TTITLE3=Fikra
TTITLE4=All My Life (Remix)
TTITLE5=Isyankar (Oryantal Remix)
TTITLE6=Gel Askim (Remix)
TTITLE7=Story
TTITLE8=All My Life
TTITLE9=Ozetle
EXTD=Mustafa Sandal Isyankar
EXTT0=
EXTT1=
EXTT2=
EXTT3=
EXTT4=
EXTT5=
EXTT6=
EXTT7=
EXTT8=
EXTT9=
PLAYORDER=
